G04 #@! TF.GenerationSoftware,KiCad,Pcbnew,(2017-09-19 revision dddaa7e69)-makepkg*
G04 #@! TF.CreationDate,2017-10-26T12:28:29+02:00*
G04 #@! TF.ProjectId,ezs-camera.kicad_pcb_v1.1,657A732D63616D6572612E6B69636164,rev?*
G04 #@! TF.SameCoordinates,Original*
G04 #@! TF.FileFunction,Legend,Top*
G04 #@! TF.FilePolarity,Positive*
%FSLAX46Y46*%
G04 Gerber Fmt 4.6, Leading zero omitted, Abs format (unit mm)*
G04 Created by KiCad (PCBNEW (2017-09-19 revision dddaa7e69)-makepkg) date 10/26/17 12:28:29*
%MOMM*%
%LPD*%
G01*
G04 APERTURE LIST*
%ADD10C,0.200000*%
%ADD11C,0.152400*%
%ADD12C,0.120000*%
%ADD13C,0.150000*%
G04 APERTURE END LIST*
D10*
X139192142Y-157619000D02*
X139049285Y-157547571D01*
X138835000Y-157547571D01*
X138620714Y-157619000D01*
X138477857Y-157761857D01*
X138406428Y-157904714D01*
X138335000Y-158190428D01*
X138335000Y-158404714D01*
X138406428Y-158690428D01*
X138477857Y-158833285D01*
X138620714Y-158976142D01*
X138835000Y-159047571D01*
X138977857Y-159047571D01*
X139192142Y-158976142D01*
X139263571Y-158904714D01*
X139263571Y-158404714D01*
X138977857Y-158404714D01*
X139906428Y-159047571D02*
X139906428Y-157547571D01*
X140763571Y-159047571D01*
X140763571Y-157547571D01*
X141477857Y-159047571D02*
X141477857Y-157547571D01*
X141835000Y-157547571D01*
X142049285Y-157619000D01*
X142192142Y-157761857D01*
X142263571Y-157904714D01*
X142335000Y-158190428D01*
X142335000Y-158404714D01*
X142263571Y-158690428D01*
X142192142Y-158833285D01*
X142049285Y-158976142D01*
X141835000Y-159047571D01*
X141477857Y-159047571D01*
X138411142Y-149818714D02*
X139325428Y-149818714D01*
X138868285Y-150275857D02*
X138868285Y-149361571D01*
X140468285Y-149075857D02*
X139896857Y-149075857D01*
X139839714Y-149647285D01*
X139896857Y-149590142D01*
X140011142Y-149533000D01*
X140296857Y-149533000D01*
X140411142Y-149590142D01*
X140468285Y-149647285D01*
X140525428Y-149761571D01*
X140525428Y-150047285D01*
X140468285Y-150161571D01*
X140411142Y-150218714D01*
X140296857Y-150275857D01*
X140011142Y-150275857D01*
X139896857Y-150218714D01*
X139839714Y-150161571D01*
X140868285Y-149075857D02*
X141268285Y-150275857D01*
X141668285Y-149075857D01*
D11*
X151053800Y-127406400D02*
X150485050Y-127406400D01*
X147701000Y-127406400D02*
X147701000Y-127597659D01*
X147701000Y-130759200D02*
X148269750Y-130759200D01*
X151053800Y-130759200D02*
X151053800Y-130567941D01*
X151053800Y-127597659D02*
X151053800Y-127406400D01*
X147701000Y-130567941D02*
X147701000Y-130759200D01*
X148269750Y-127406400D02*
X147701000Y-127406400D01*
X150485050Y-130759200D02*
X151053800Y-130759200D01*
D12*
X123758000Y-112770000D02*
X123758000Y-140770000D01*
X123758000Y-140770000D02*
X118558000Y-140770000D01*
X118558000Y-140770000D02*
X118558000Y-110170000D01*
X118558000Y-110170000D02*
X121158000Y-110170000D01*
X121158000Y-110170000D02*
X121158000Y-112770000D01*
X121158000Y-112770000D02*
X123758000Y-112770000D01*
X123758000Y-111500000D02*
X123758000Y-110170000D01*
X123758000Y-110170000D02*
X122488000Y-110170000D01*
X148820978Y-131312630D02*
X147820978Y-131312630D01*
X147820978Y-133012630D02*
X148820978Y-133012630D01*
X142402000Y-145170000D02*
X143602000Y-145170000D01*
X143602000Y-146930000D02*
X142402000Y-146930000D01*
X144748869Y-142722659D02*
X144748869Y-141722659D01*
X143048869Y-141722659D02*
X143048869Y-142722659D01*
X146031911Y-137401641D02*
X147031911Y-137401641D01*
X147031911Y-135701641D02*
X146031911Y-135701641D01*
X150931500Y-145200000D02*
X149931500Y-145200000D01*
X149931500Y-146900000D02*
X150931500Y-146900000D01*
X153388869Y-145134659D02*
X152188869Y-145134659D01*
X152188869Y-143374659D02*
X153388869Y-143374659D01*
X143540000Y-151982000D02*
X143540000Y-157932000D01*
X143540000Y-157932000D02*
X153640000Y-157932000D01*
X153640000Y-157932000D02*
X153640000Y-151982000D01*
X153640000Y-151982000D02*
X143540000Y-151982000D01*
X146840000Y-151982000D02*
X146840000Y-152732000D01*
X146840000Y-152732000D02*
X150340000Y-152732000D01*
X150340000Y-152732000D02*
X150340000Y-151982000D01*
X150340000Y-151982000D02*
X146840000Y-151982000D01*
X143540000Y-151982000D02*
X143540000Y-152732000D01*
X143540000Y-152732000D02*
X145340000Y-152732000D01*
X145340000Y-152732000D02*
X145340000Y-151982000D01*
X145340000Y-151982000D02*
X143540000Y-151982000D01*
X151840000Y-151982000D02*
X151840000Y-152732000D01*
X151840000Y-152732000D02*
X153640000Y-152732000D01*
X153640000Y-152732000D02*
X153640000Y-151982000D01*
X153640000Y-151982000D02*
X151840000Y-151982000D01*
X143540000Y-154232000D02*
X144290000Y-154232000D01*
X144290000Y-154232000D02*
X144290000Y-157182000D01*
X144290000Y-157182000D02*
X148590000Y-157182000D01*
X153640000Y-154232000D02*
X152890000Y-154232000D01*
X152890000Y-154232000D02*
X152890000Y-157182000D01*
X152890000Y-157182000D02*
X148590000Y-157182000D01*
X145740000Y-151682000D02*
X143240000Y-151682000D01*
X143240000Y-151682000D02*
X143240000Y-154182000D01*
X146650000Y-151248000D02*
X145450000Y-151248000D01*
X145450000Y-149488000D02*
X146650000Y-149488000D01*
X153788869Y-142972659D02*
X150588869Y-142972659D01*
X150588869Y-141472659D02*
X153788869Y-141472659D01*
X150588869Y-141472659D02*
X150588869Y-142972659D01*
X153788869Y-141194659D02*
X150588869Y-141194659D01*
X150588869Y-139694659D02*
X153788869Y-139694659D01*
X150588869Y-139694659D02*
X150588869Y-141194659D01*
X143645911Y-137703641D02*
X144845911Y-137703641D01*
X144845911Y-139463641D02*
X143645911Y-139463641D01*
X146650000Y-149216000D02*
X145450000Y-149216000D01*
X145450000Y-147456000D02*
X146650000Y-147456000D01*
X153388869Y-139292659D02*
X152188869Y-139292659D01*
X152188869Y-137532659D02*
X153388869Y-137532659D01*
X130058000Y-157390000D02*
X130058000Y-151440000D01*
X130058000Y-151440000D02*
X114958000Y-151440000D01*
X114958000Y-151440000D02*
X114958000Y-157390000D01*
X114958000Y-157390000D02*
X130058000Y-157390000D01*
X126758000Y-157390000D02*
X126758000Y-156640000D01*
X126758000Y-156640000D02*
X118258000Y-156640000D01*
X118258000Y-156640000D02*
X118258000Y-157390000D01*
X118258000Y-157390000D02*
X126758000Y-157390000D01*
X130058000Y-157390000D02*
X130058000Y-156640000D01*
X130058000Y-156640000D02*
X128258000Y-156640000D01*
X128258000Y-156640000D02*
X128258000Y-157390000D01*
X128258000Y-157390000D02*
X130058000Y-157390000D01*
X116758000Y-157390000D02*
X116758000Y-156640000D01*
X116758000Y-156640000D02*
X114958000Y-156640000D01*
X114958000Y-156640000D02*
X114958000Y-157390000D01*
X114958000Y-157390000D02*
X116758000Y-157390000D01*
X130058000Y-155140000D02*
X129308000Y-155140000D01*
X129308000Y-155140000D02*
X129308000Y-152190000D01*
X129308000Y-152190000D02*
X122508000Y-152190000D01*
X114958000Y-155140000D02*
X115708000Y-155140000D01*
X115708000Y-155140000D02*
X115708000Y-152190000D01*
X115708000Y-152190000D02*
X122508000Y-152190000D01*
X127858000Y-157690000D02*
X130358000Y-157690000D01*
X130358000Y-157690000D02*
X130358000Y-155190000D01*
X150360978Y-122852630D02*
X151360978Y-122852630D01*
X151360978Y-121152630D02*
X150360978Y-121152630D01*
X143866978Y-123942630D02*
X143866978Y-125142630D01*
X142106978Y-125142630D02*
X142106978Y-123942630D01*
X150360978Y-124884630D02*
X151360978Y-124884630D01*
X151360978Y-123184630D02*
X150360978Y-123184630D01*
X146454978Y-124042630D02*
X146454978Y-125042630D01*
X148154978Y-125042630D02*
X148154978Y-124042630D01*
X150360978Y-126916630D02*
X151360978Y-126916630D01*
X151360978Y-125216630D02*
X150360978Y-125216630D01*
X141852978Y-130730630D02*
X141852978Y-129530630D01*
X143612978Y-129530630D02*
X143612978Y-130730630D01*
D13*
X151808978Y-133527630D02*
X151808978Y-129527630D01*
X155094578Y-133527630D02*
X155094578Y-129527630D01*
D12*
X145688978Y-133314630D02*
X146888978Y-133314630D01*
X146888978Y-135074630D02*
X145688978Y-135074630D01*
X145771978Y-129530630D02*
X145771978Y-130730630D01*
X144011978Y-130730630D02*
X144011978Y-129530630D01*
X144265978Y-125142630D02*
X144265978Y-123942630D01*
X146025978Y-123942630D02*
X146025978Y-125142630D01*
X153536978Y-126156000D02*
X153536978Y-124956000D01*
X155296978Y-124956000D02*
X155296978Y-126156000D01*
D13*
X129378222Y-144046276D02*
X129353222Y-144046276D01*
X129378222Y-148196276D02*
X129273222Y-148196276D01*
X119228222Y-148196276D02*
X119333222Y-148196276D01*
X119228222Y-144046276D02*
X119333222Y-144046276D01*
X129378222Y-144046276D02*
X129378222Y-148196276D01*
X119228222Y-144046276D02*
X119228222Y-148196276D01*
X129353222Y-144046276D02*
X129353222Y-142671276D01*
D12*
X156170000Y-112820000D02*
X156170000Y-140820000D01*
X156170000Y-140820000D02*
X158830000Y-140820000D01*
X158830000Y-140820000D02*
X158830000Y-112820000D01*
X158830000Y-112820000D02*
X156170000Y-112820000D01*
X156170000Y-111550000D02*
X156170000Y-110220000D01*
X156170000Y-110220000D02*
X157500000Y-110220000D01*
X139506138Y-131600348D02*
X141206138Y-131600348D01*
X141206138Y-131600348D02*
X141206138Y-128450348D01*
X139506138Y-131600348D02*
X139506138Y-128450348D01*
X132858000Y-127472000D02*
X134858000Y-127472000D01*
X134858000Y-127472000D02*
X134858000Y-123572000D01*
X132858000Y-127472000D02*
X132858000Y-123572000D01*
X137477531Y-139088848D02*
X135477531Y-139088848D01*
X135477531Y-136948848D02*
X137477531Y-136948848D01*
X137482638Y-136167848D02*
X135482638Y-136167848D01*
X135482638Y-134027848D02*
X137482638Y-134027848D01*
X138913031Y-130637989D02*
X138913031Y-128837989D01*
X135693031Y-128837989D02*
X135693031Y-131287989D01*
X137070000Y-150358000D02*
X131120000Y-150358000D01*
X131120000Y-150358000D02*
X131120000Y-157958000D01*
X131120000Y-157958000D02*
X137070000Y-157958000D01*
X137070000Y-157958000D02*
X137070000Y-150358000D01*
X137070000Y-153658000D02*
X136320000Y-153658000D01*
X136320000Y-153658000D02*
X136320000Y-154658000D01*
X136320000Y-154658000D02*
X137070000Y-154658000D01*
X137070000Y-154658000D02*
X137070000Y-153658000D01*
X137070000Y-150358000D02*
X136320000Y-150358000D01*
X136320000Y-150358000D02*
X136320000Y-152158000D01*
X136320000Y-152158000D02*
X137070000Y-152158000D01*
X137070000Y-152158000D02*
X137070000Y-150358000D01*
X137070000Y-156158000D02*
X136320000Y-156158000D01*
X136320000Y-156158000D02*
X136320000Y-157958000D01*
X136320000Y-157958000D02*
X137070000Y-157958000D01*
X137070000Y-157958000D02*
X137070000Y-156158000D01*
X134820000Y-150358000D02*
X134820000Y-151108000D01*
X134820000Y-151108000D02*
X131870000Y-151108000D01*
X131870000Y-151108000D02*
X131870000Y-154158000D01*
X134820000Y-157958000D02*
X134820000Y-157208000D01*
X134820000Y-157208000D02*
X131870000Y-157208000D01*
X131870000Y-157208000D02*
X131870000Y-154158000D01*
X137370000Y-152558000D02*
X137370000Y-150058000D01*
X137370000Y-150058000D02*
X134870000Y-150058000D01*
X136135531Y-124310848D02*
X136135531Y-125310848D01*
X137835531Y-125310848D02*
X137835531Y-124310848D01*
X133024031Y-129237989D02*
X133024031Y-130237989D01*
X134724031Y-130237989D02*
X134724031Y-129237989D01*
X130818031Y-134786000D02*
X129818031Y-134786000D01*
X129818031Y-136486000D02*
X130818031Y-136486000D01*
X130929000Y-136818000D02*
X129929000Y-136818000D01*
X129929000Y-138518000D02*
X130929000Y-138518000D01*
D11*
X145211601Y-143102583D02*
X145211601Y-143840399D01*
X145949605Y-139928401D02*
X145211601Y-139928401D01*
X149123599Y-140666217D02*
X149123599Y-139928401D01*
X148385595Y-143840399D02*
X149123599Y-143840399D01*
X145211601Y-143840399D02*
X145949605Y-143840399D01*
X145211601Y-139928401D02*
X145211601Y-140666217D01*
X149123599Y-139928401D02*
X148385595Y-139928401D01*
X149123599Y-143840399D02*
X149123599Y-143102583D01*
D13*
X120824666Y-108622380D02*
X120824666Y-109336666D01*
X120777047Y-109479523D01*
X120681809Y-109574761D01*
X120538952Y-109622380D01*
X120443714Y-109622380D01*
X121253238Y-108717619D02*
X121300857Y-108670000D01*
X121396095Y-108622380D01*
X121634190Y-108622380D01*
X121729428Y-108670000D01*
X121777047Y-108717619D01*
X121824666Y-108812857D01*
X121824666Y-108908095D01*
X121777047Y-109050952D01*
X121205619Y-109622380D01*
X121824666Y-109622380D01*
X151741142Y-132246666D02*
X151788761Y-132294285D01*
X151836380Y-132437142D01*
X151836380Y-132532380D01*
X151788761Y-132675238D01*
X151693523Y-132770476D01*
X151598285Y-132818095D01*
X151407809Y-132865714D01*
X151264952Y-132865714D01*
X151074476Y-132818095D01*
X150979238Y-132770476D01*
X150884000Y-132675238D01*
X150836380Y-132532380D01*
X150836380Y-132437142D01*
X150884000Y-132294285D01*
X150931619Y-132246666D01*
X150836380Y-131389523D02*
X150836380Y-131580000D01*
X150884000Y-131675238D01*
X150931619Y-131722857D01*
X151074476Y-131818095D01*
X151264952Y-131865714D01*
X151645904Y-131865714D01*
X151741142Y-131818095D01*
X151788761Y-131770476D01*
X151836380Y-131675238D01*
X151836380Y-131484761D01*
X151788761Y-131389523D01*
X151741142Y-131341904D01*
X151645904Y-131294285D01*
X151407809Y-131294285D01*
X151312571Y-131341904D01*
X151264952Y-131389523D01*
X151217333Y-131484761D01*
X151217333Y-131675238D01*
X151264952Y-131770476D01*
X151312571Y-131818095D01*
X151407809Y-131865714D01*
X139406333Y-146502380D02*
X139073000Y-146026190D01*
X138834904Y-146502380D02*
X138834904Y-145502380D01*
X139215857Y-145502380D01*
X139311095Y-145550000D01*
X139358714Y-145597619D01*
X139406333Y-145692857D01*
X139406333Y-145835714D01*
X139358714Y-145930952D01*
X139311095Y-145978571D01*
X139215857Y-146026190D01*
X138834904Y-146026190D01*
X139787285Y-145597619D02*
X139834904Y-145550000D01*
X139930142Y-145502380D01*
X140168238Y-145502380D01*
X140263476Y-145550000D01*
X140311095Y-145597619D01*
X140358714Y-145692857D01*
X140358714Y-145788095D01*
X140311095Y-145930952D01*
X139739666Y-146502380D01*
X140358714Y-146502380D01*
X142533642Y-142597166D02*
X142581261Y-142644785D01*
X142628880Y-142787642D01*
X142628880Y-142882880D01*
X142581261Y-143025738D01*
X142486023Y-143120976D01*
X142390785Y-143168595D01*
X142200309Y-143216214D01*
X142057452Y-143216214D01*
X141866976Y-143168595D01*
X141771738Y-143120976D01*
X141676500Y-143025738D01*
X141628880Y-142882880D01*
X141628880Y-142787642D01*
X141676500Y-142644785D01*
X141724119Y-142597166D01*
X141724119Y-142216214D02*
X141676500Y-142168595D01*
X141628880Y-142073357D01*
X141628880Y-141835261D01*
X141676500Y-141740023D01*
X141724119Y-141692404D01*
X141819357Y-141644785D01*
X141914595Y-141644785D01*
X142057452Y-141692404D01*
X142628880Y-142263833D01*
X142628880Y-141644785D01*
X142168642Y-136945642D02*
X142121023Y-136993261D01*
X141978166Y-137040880D01*
X141882928Y-137040880D01*
X141740071Y-136993261D01*
X141644833Y-136898023D01*
X141597214Y-136802785D01*
X141549595Y-136612309D01*
X141549595Y-136469452D01*
X141597214Y-136278976D01*
X141644833Y-136183738D01*
X141740071Y-136088500D01*
X141882928Y-136040880D01*
X141978166Y-136040880D01*
X142121023Y-136088500D01*
X142168642Y-136136119D01*
X143121023Y-137040880D02*
X142549595Y-137040880D01*
X142835309Y-137040880D02*
X142835309Y-136040880D01*
X142740071Y-136183738D01*
X142644833Y-136278976D01*
X142549595Y-136326595D01*
X143501976Y-136136119D02*
X143549595Y-136088500D01*
X143644833Y-136040880D01*
X143882928Y-136040880D01*
X143978166Y-136088500D01*
X144025785Y-136136119D01*
X144073404Y-136231357D01*
X144073404Y-136326595D01*
X144025785Y-136469452D01*
X143454357Y-137040880D01*
X144073404Y-137040880D01*
X153566833Y-146534142D02*
X153519214Y-146581761D01*
X153376357Y-146629380D01*
X153281119Y-146629380D01*
X153138261Y-146581761D01*
X153043023Y-146486523D01*
X152995404Y-146391285D01*
X152947785Y-146200809D01*
X152947785Y-146057952D01*
X152995404Y-145867476D01*
X153043023Y-145772238D01*
X153138261Y-145677000D01*
X153281119Y-145629380D01*
X153376357Y-145629380D01*
X153519214Y-145677000D01*
X153566833Y-145724619D01*
X154138261Y-146057952D02*
X154043023Y-146010333D01*
X153995404Y-145962714D01*
X153947785Y-145867476D01*
X153947785Y-145819857D01*
X153995404Y-145724619D01*
X154043023Y-145677000D01*
X154138261Y-145629380D01*
X154328738Y-145629380D01*
X154423976Y-145677000D01*
X154471595Y-145724619D01*
X154519214Y-145819857D01*
X154519214Y-145867476D01*
X154471595Y-145962714D01*
X154423976Y-146010333D01*
X154328738Y-146057952D01*
X154138261Y-146057952D01*
X154043023Y-146105571D01*
X153995404Y-146153190D01*
X153947785Y-146248428D01*
X153947785Y-146438904D01*
X153995404Y-146534142D01*
X154043023Y-146581761D01*
X154138261Y-146629380D01*
X154328738Y-146629380D01*
X154423976Y-146581761D01*
X154471595Y-146534142D01*
X154519214Y-146438904D01*
X154519214Y-146248428D01*
X154471595Y-146153190D01*
X154423976Y-146105571D01*
X154328738Y-146057952D01*
X156106833Y-144724380D02*
X155773500Y-144248190D01*
X155535404Y-144724380D02*
X155535404Y-143724380D01*
X155916357Y-143724380D01*
X156011595Y-143772000D01*
X156059214Y-143819619D01*
X156106833Y-143914857D01*
X156106833Y-144057714D01*
X156059214Y-144152952D01*
X156011595Y-144200571D01*
X155916357Y-144248190D01*
X155535404Y-144248190D01*
X156963976Y-143724380D02*
X156773500Y-143724380D01*
X156678261Y-143772000D01*
X156630642Y-143819619D01*
X156535404Y-143962476D01*
X156487785Y-144152952D01*
X156487785Y-144533904D01*
X156535404Y-144629142D01*
X156583023Y-144676761D01*
X156678261Y-144724380D01*
X156868738Y-144724380D01*
X156963976Y-144676761D01*
X157011595Y-144629142D01*
X157059214Y-144533904D01*
X157059214Y-144295809D01*
X157011595Y-144200571D01*
X156963976Y-144152952D01*
X156868738Y-144105333D01*
X156678261Y-144105333D01*
X156583023Y-144152952D01*
X156535404Y-144200571D01*
X156487785Y-144295809D01*
X147939166Y-158075380D02*
X147939166Y-158789666D01*
X147891547Y-158932523D01*
X147796309Y-159027761D01*
X147653452Y-159075380D01*
X147558214Y-159075380D01*
X148891547Y-158075380D02*
X148415357Y-158075380D01*
X148367738Y-158551571D01*
X148415357Y-158503952D01*
X148510595Y-158456333D01*
X148748690Y-158456333D01*
X148843928Y-158503952D01*
X148891547Y-158551571D01*
X148939166Y-158646809D01*
X148939166Y-158884904D01*
X148891547Y-158980142D01*
X148843928Y-159027761D01*
X148748690Y-159075380D01*
X148510595Y-159075380D01*
X148415357Y-159027761D01*
X148367738Y-158980142D01*
X149312333Y-150820380D02*
X148979000Y-150344190D01*
X148740904Y-150820380D02*
X148740904Y-149820380D01*
X149121857Y-149820380D01*
X149217095Y-149868000D01*
X149264714Y-149915619D01*
X149312333Y-150010857D01*
X149312333Y-150153714D01*
X149264714Y-150248952D01*
X149217095Y-150296571D01*
X149121857Y-150344190D01*
X148740904Y-150344190D01*
X150264714Y-150820380D02*
X149693285Y-150820380D01*
X149979000Y-150820380D02*
X149979000Y-149820380D01*
X149883761Y-149963238D01*
X149788523Y-150058476D01*
X149693285Y-150106095D01*
X155471904Y-143073380D02*
X155471904Y-142073380D01*
X155710000Y-142073380D01*
X155852857Y-142121000D01*
X155948095Y-142216238D01*
X155995714Y-142311476D01*
X156043333Y-142501952D01*
X156043333Y-142644809D01*
X155995714Y-142835285D01*
X155948095Y-142930523D01*
X155852857Y-143025761D01*
X155710000Y-143073380D01*
X155471904Y-143073380D01*
X156376666Y-142073380D02*
X156995714Y-142073380D01*
X156662380Y-142454333D01*
X156805238Y-142454333D01*
X156900476Y-142501952D01*
X156948095Y-142549571D01*
X156995714Y-142644809D01*
X156995714Y-142882904D01*
X156948095Y-142978142D01*
X156900476Y-143025761D01*
X156805238Y-143073380D01*
X156519523Y-143073380D01*
X156424285Y-143025761D01*
X156376666Y-142978142D01*
X155471904Y-141612880D02*
X155471904Y-140612880D01*
X155710000Y-140612880D01*
X155852857Y-140660500D01*
X155948095Y-140755738D01*
X155995714Y-140850976D01*
X156043333Y-141041452D01*
X156043333Y-141184309D01*
X155995714Y-141374785D01*
X155948095Y-141470023D01*
X155852857Y-141565261D01*
X155710000Y-141612880D01*
X155471904Y-141612880D01*
X156900476Y-140946214D02*
X156900476Y-141612880D01*
X156662380Y-140565261D02*
X156424285Y-141279547D01*
X157043333Y-141279547D01*
X147407333Y-139136380D02*
X147074000Y-138660190D01*
X146835904Y-139136380D02*
X146835904Y-138136380D01*
X147216857Y-138136380D01*
X147312095Y-138184000D01*
X147359714Y-138231619D01*
X147407333Y-138326857D01*
X147407333Y-138469714D01*
X147359714Y-138564952D01*
X147312095Y-138612571D01*
X147216857Y-138660190D01*
X146835904Y-138660190D01*
X147740666Y-138136380D02*
X148359714Y-138136380D01*
X148026380Y-138517333D01*
X148169238Y-138517333D01*
X148264476Y-138564952D01*
X148312095Y-138612571D01*
X148359714Y-138707809D01*
X148359714Y-138945904D01*
X148312095Y-139041142D01*
X148264476Y-139088761D01*
X148169238Y-139136380D01*
X147883523Y-139136380D01*
X147788285Y-139088761D01*
X147740666Y-139041142D01*
X149312333Y-148978880D02*
X148979000Y-148502690D01*
X148740904Y-148978880D02*
X148740904Y-147978880D01*
X149121857Y-147978880D01*
X149217095Y-148026500D01*
X149264714Y-148074119D01*
X149312333Y-148169357D01*
X149312333Y-148312214D01*
X149264714Y-148407452D01*
X149217095Y-148455071D01*
X149121857Y-148502690D01*
X148740904Y-148502690D01*
X150169476Y-148312214D02*
X150169476Y-148978880D01*
X149931380Y-147931261D02*
X149693285Y-148645547D01*
X150312333Y-148645547D01*
X152622202Y-137165039D02*
X152288869Y-136688849D01*
X152050773Y-137165039D02*
X152050773Y-136165039D01*
X152431726Y-136165039D01*
X152526964Y-136212659D01*
X152574583Y-136260278D01*
X152622202Y-136355516D01*
X152622202Y-136498373D01*
X152574583Y-136593611D01*
X152526964Y-136641230D01*
X152431726Y-136688849D01*
X152050773Y-136688849D01*
X153526964Y-136165039D02*
X153050773Y-136165039D01*
X153003154Y-136641230D01*
X153050773Y-136593611D01*
X153146011Y-136545992D01*
X153384107Y-136545992D01*
X153479345Y-136593611D01*
X153526964Y-136641230D01*
X153574583Y-136736468D01*
X153574583Y-136974563D01*
X153526964Y-137069801D01*
X153479345Y-137117420D01*
X153384107Y-137165039D01*
X153146011Y-137165039D01*
X153050773Y-137117420D01*
X153003154Y-137069801D01*
X122174666Y-157892380D02*
X122174666Y-158606666D01*
X122127047Y-158749523D01*
X122031809Y-158844761D01*
X121888952Y-158892380D01*
X121793714Y-158892380D01*
X122555619Y-157892380D02*
X123174666Y-157892380D01*
X122841333Y-158273333D01*
X122984190Y-158273333D01*
X123079428Y-158320952D01*
X123127047Y-158368571D01*
X123174666Y-158463809D01*
X123174666Y-158701904D01*
X123127047Y-158797142D01*
X123079428Y-158844761D01*
X122984190Y-158892380D01*
X122698476Y-158892380D01*
X122603238Y-158844761D01*
X122555619Y-158797142D01*
X149979142Y-117197142D02*
X149931523Y-117244761D01*
X149788666Y-117292380D01*
X149693428Y-117292380D01*
X149550571Y-117244761D01*
X149455333Y-117149523D01*
X149407714Y-117054285D01*
X149360095Y-116863809D01*
X149360095Y-116720952D01*
X149407714Y-116530476D01*
X149455333Y-116435238D01*
X149550571Y-116340000D01*
X149693428Y-116292380D01*
X149788666Y-116292380D01*
X149931523Y-116340000D01*
X149979142Y-116387619D01*
X150931523Y-117292380D02*
X150360095Y-117292380D01*
X150645809Y-117292380D02*
X150645809Y-116292380D01*
X150550571Y-116435238D01*
X150455333Y-116530476D01*
X150360095Y-116578095D01*
X151883904Y-117292380D02*
X151312476Y-117292380D01*
X151598190Y-117292380D02*
X151598190Y-116292380D01*
X151502952Y-116435238D01*
X151407714Y-116530476D01*
X151312476Y-116578095D01*
X143454380Y-120784857D02*
X142978190Y-121118190D01*
X143454380Y-121356285D02*
X142454380Y-121356285D01*
X142454380Y-120975333D01*
X142502000Y-120880095D01*
X142549619Y-120832476D01*
X142644857Y-120784857D01*
X142787714Y-120784857D01*
X142882952Y-120832476D01*
X142930571Y-120880095D01*
X142978190Y-120975333D01*
X142978190Y-121356285D01*
X143454380Y-119832476D02*
X143454380Y-120403904D01*
X143454380Y-120118190D02*
X142454380Y-120118190D01*
X142597238Y-120213428D01*
X142692476Y-120308666D01*
X142740095Y-120403904D01*
X142787714Y-118975333D02*
X143454380Y-118975333D01*
X142406761Y-119213428D02*
X143121047Y-119451523D01*
X143121047Y-118832476D01*
X149979142Y-118721142D02*
X149931523Y-118768761D01*
X149788666Y-118816380D01*
X149693428Y-118816380D01*
X149550571Y-118768761D01*
X149455333Y-118673523D01*
X149407714Y-118578285D01*
X149360095Y-118387809D01*
X149360095Y-118244952D01*
X149407714Y-118054476D01*
X149455333Y-117959238D01*
X149550571Y-117864000D01*
X149693428Y-117816380D01*
X149788666Y-117816380D01*
X149931523Y-117864000D01*
X149979142Y-117911619D01*
X150931523Y-118816380D02*
X150360095Y-118816380D01*
X150645809Y-118816380D02*
X150645809Y-117816380D01*
X150550571Y-117959238D01*
X150455333Y-118054476D01*
X150360095Y-118102095D01*
X151550571Y-117816380D02*
X151645809Y-117816380D01*
X151741047Y-117864000D01*
X151788666Y-117911619D01*
X151836285Y-118006857D01*
X151883904Y-118197333D01*
X151883904Y-118435428D01*
X151836285Y-118625904D01*
X151788666Y-118721142D01*
X151741047Y-118768761D01*
X151645809Y-118816380D01*
X151550571Y-118816380D01*
X151455333Y-118768761D01*
X151407714Y-118721142D01*
X151360095Y-118625904D01*
X151312476Y-118435428D01*
X151312476Y-118197333D01*
X151360095Y-118006857D01*
X151407714Y-117911619D01*
X151455333Y-117864000D01*
X151550571Y-117816380D01*
X147677142Y-120816666D02*
X147724761Y-120864285D01*
X147772380Y-121007142D01*
X147772380Y-121102380D01*
X147724761Y-121245238D01*
X147629523Y-121340476D01*
X147534285Y-121388095D01*
X147343809Y-121435714D01*
X147200952Y-121435714D01*
X147010476Y-121388095D01*
X146915238Y-121340476D01*
X146820000Y-121245238D01*
X146772380Y-121102380D01*
X146772380Y-121007142D01*
X146820000Y-120864285D01*
X146867619Y-120816666D01*
X146772380Y-120483333D02*
X146772380Y-119816666D01*
X147772380Y-120245238D01*
X150455333Y-120245142D02*
X150407714Y-120292761D01*
X150264857Y-120340380D01*
X150169619Y-120340380D01*
X150026761Y-120292761D01*
X149931523Y-120197523D01*
X149883904Y-120102285D01*
X149836285Y-119911809D01*
X149836285Y-119768952D01*
X149883904Y-119578476D01*
X149931523Y-119483238D01*
X150026761Y-119388000D01*
X150169619Y-119340380D01*
X150264857Y-119340380D01*
X150407714Y-119388000D01*
X150455333Y-119435619D01*
X150931523Y-120340380D02*
X151122000Y-120340380D01*
X151217238Y-120292761D01*
X151264857Y-120245142D01*
X151360095Y-120102285D01*
X151407714Y-119911809D01*
X151407714Y-119530857D01*
X151360095Y-119435619D01*
X151312476Y-119388000D01*
X151217238Y-119340380D01*
X151026761Y-119340380D01*
X150931523Y-119388000D01*
X150883904Y-119435619D01*
X150836285Y-119530857D01*
X150836285Y-119768952D01*
X150883904Y-119864190D01*
X150931523Y-119911809D01*
X151026761Y-119959428D01*
X151217238Y-119959428D01*
X151312476Y-119911809D01*
X151360095Y-119864190D01*
X151407714Y-119768952D01*
X143073380Y-134373857D02*
X142597190Y-134707190D01*
X143073380Y-134945285D02*
X142073380Y-134945285D01*
X142073380Y-134564333D01*
X142121000Y-134469095D01*
X142168619Y-134421476D01*
X142263857Y-134373857D01*
X142406714Y-134373857D01*
X142501952Y-134421476D01*
X142549571Y-134469095D01*
X142597190Y-134564333D01*
X142597190Y-134945285D01*
X143073380Y-133421476D02*
X143073380Y-133992904D01*
X143073380Y-133707190D02*
X142073380Y-133707190D01*
X142216238Y-133802428D01*
X142311476Y-133897666D01*
X142359095Y-133992904D01*
X143073380Y-132469095D02*
X143073380Y-133040523D01*
X143073380Y-132754809D02*
X142073380Y-132754809D01*
X142216238Y-132850047D01*
X142311476Y-132945285D01*
X142359095Y-133040523D01*
X153185833Y-135072380D02*
X152709642Y-135072380D01*
X152709642Y-134072380D01*
X153471547Y-134167619D02*
X153519166Y-134120000D01*
X153614404Y-134072380D01*
X153852500Y-134072380D01*
X153947738Y-134120000D01*
X153995357Y-134167619D01*
X154042976Y-134262857D01*
X154042976Y-134358095D01*
X153995357Y-134500952D01*
X153423928Y-135072380D01*
X154042976Y-135072380D01*
X149693333Y-134754880D02*
X149360000Y-134278690D01*
X149121904Y-134754880D02*
X149121904Y-133754880D01*
X149502857Y-133754880D01*
X149598095Y-133802500D01*
X149645714Y-133850119D01*
X149693333Y-133945357D01*
X149693333Y-134088214D01*
X149645714Y-134183452D01*
X149598095Y-134231071D01*
X149502857Y-134278690D01*
X149121904Y-134278690D01*
X150169523Y-134754880D02*
X150360000Y-134754880D01*
X150455238Y-134707261D01*
X150502857Y-134659642D01*
X150598095Y-134516785D01*
X150645714Y-134326309D01*
X150645714Y-133945357D01*
X150598095Y-133850119D01*
X150550476Y-133802500D01*
X150455238Y-133754880D01*
X150264761Y-133754880D01*
X150169523Y-133802500D01*
X150121904Y-133850119D01*
X150074285Y-133945357D01*
X150074285Y-134183452D01*
X150121904Y-134278690D01*
X150169523Y-134326309D01*
X150264761Y-134373928D01*
X150455238Y-134373928D01*
X150550476Y-134326309D01*
X150598095Y-134278690D01*
X150645714Y-134183452D01*
X145549880Y-129928857D02*
X145073690Y-130262190D01*
X145549880Y-130500285D02*
X144549880Y-130500285D01*
X144549880Y-130119333D01*
X144597500Y-130024095D01*
X144645119Y-129976476D01*
X144740357Y-129928857D01*
X144883214Y-129928857D01*
X144978452Y-129976476D01*
X145026071Y-130024095D01*
X145073690Y-130119333D01*
X145073690Y-130500285D01*
X145549880Y-128976476D02*
X145549880Y-129547904D01*
X145549880Y-129262190D02*
X144549880Y-129262190D01*
X144692738Y-129357428D01*
X144787976Y-129452666D01*
X144835595Y-129547904D01*
X144549880Y-128357428D02*
X144549880Y-128262190D01*
X144597500Y-128166952D01*
X144645119Y-128119333D01*
X144740357Y-128071714D01*
X144930833Y-128024095D01*
X145168928Y-128024095D01*
X145359404Y-128071714D01*
X145454642Y-128119333D01*
X145502261Y-128166952D01*
X145549880Y-128262190D01*
X145549880Y-128357428D01*
X145502261Y-128452666D01*
X145454642Y-128500285D01*
X145359404Y-128547904D01*
X145168928Y-128595523D01*
X144930833Y-128595523D01*
X144740357Y-128547904D01*
X144645119Y-128500285D01*
X144597500Y-128452666D01*
X144549880Y-128357428D01*
X145486380Y-120784857D02*
X145010190Y-121118190D01*
X145486380Y-121356285D02*
X144486380Y-121356285D01*
X144486380Y-120975333D01*
X144534000Y-120880095D01*
X144581619Y-120832476D01*
X144676857Y-120784857D01*
X144819714Y-120784857D01*
X144914952Y-120832476D01*
X144962571Y-120880095D01*
X145010190Y-120975333D01*
X145010190Y-121356285D01*
X145486380Y-119832476D02*
X145486380Y-120403904D01*
X145486380Y-120118190D02*
X144486380Y-120118190D01*
X144629238Y-120213428D01*
X144724476Y-120308666D01*
X144772095Y-120403904D01*
X144486380Y-119499142D02*
X144486380Y-118880095D01*
X144867333Y-119213428D01*
X144867333Y-119070571D01*
X144914952Y-118975333D01*
X144962571Y-118927714D01*
X145057809Y-118880095D01*
X145295904Y-118880095D01*
X145391142Y-118927714D01*
X145438761Y-118975333D01*
X145486380Y-119070571D01*
X145486380Y-119356285D01*
X145438761Y-119451523D01*
X145391142Y-119499142D01*
X154884380Y-122054857D02*
X154408190Y-122388190D01*
X154884380Y-122626285D02*
X153884380Y-122626285D01*
X153884380Y-122245333D01*
X153932000Y-122150095D01*
X153979619Y-122102476D01*
X154074857Y-122054857D01*
X154217714Y-122054857D01*
X154312952Y-122102476D01*
X154360571Y-122150095D01*
X154408190Y-122245333D01*
X154408190Y-122626285D01*
X154884380Y-121102476D02*
X154884380Y-121673904D01*
X154884380Y-121388190D02*
X153884380Y-121388190D01*
X154027238Y-121483428D01*
X154122476Y-121578666D01*
X154170095Y-121673904D01*
X153979619Y-120721523D02*
X153932000Y-120673904D01*
X153884380Y-120578666D01*
X153884380Y-120340571D01*
X153932000Y-120245333D01*
X153979619Y-120197714D01*
X154074857Y-120150095D01*
X154170095Y-120150095D01*
X154312952Y-120197714D01*
X154884380Y-120769142D01*
X154884380Y-120150095D01*
X117689380Y-146811904D02*
X118498904Y-146811904D01*
X118594142Y-146764285D01*
X118641761Y-146716666D01*
X118689380Y-146621428D01*
X118689380Y-146430952D01*
X118641761Y-146335714D01*
X118594142Y-146288095D01*
X118498904Y-146240476D01*
X117689380Y-146240476D01*
X118689380Y-145240476D02*
X118689380Y-145811904D01*
X118689380Y-145526190D02*
X117689380Y-145526190D01*
X117832238Y-145621428D01*
X117927476Y-145716666D01*
X117975095Y-145811904D01*
X157166666Y-108672380D02*
X157166666Y-109386666D01*
X157119047Y-109529523D01*
X157023809Y-109624761D01*
X156880952Y-109672380D01*
X156785714Y-109672380D01*
X158166666Y-109672380D02*
X157595238Y-109672380D01*
X157880952Y-109672380D02*
X157880952Y-108672380D01*
X157785714Y-108815238D01*
X157690476Y-108910476D01*
X157595238Y-108958095D01*
X140787380Y-133389595D02*
X139787380Y-133389595D01*
X139787380Y-133151500D01*
X139835000Y-133008642D01*
X139930238Y-132913404D01*
X140025476Y-132865785D01*
X140215952Y-132818166D01*
X140358809Y-132818166D01*
X140549285Y-132865785D01*
X140644523Y-132913404D01*
X140739761Y-133008642D01*
X140787380Y-133151500D01*
X140787380Y-133389595D01*
X140787380Y-131865785D02*
X140787380Y-132437214D01*
X140787380Y-132151500D02*
X139787380Y-132151500D01*
X139930238Y-132246738D01*
X140025476Y-132341976D01*
X140073095Y-132437214D01*
X133119904Y-122118380D02*
X133119904Y-121118380D01*
X133358000Y-121118380D01*
X133500857Y-121166000D01*
X133596095Y-121261238D01*
X133643714Y-121356476D01*
X133691333Y-121546952D01*
X133691333Y-121689809D01*
X133643714Y-121880285D01*
X133596095Y-121975523D01*
X133500857Y-122070761D01*
X133358000Y-122118380D01*
X133119904Y-122118380D01*
X134072285Y-121213619D02*
X134119904Y-121166000D01*
X134215142Y-121118380D01*
X134453238Y-121118380D01*
X134548476Y-121166000D01*
X134596095Y-121213619D01*
X134643714Y-121308857D01*
X134643714Y-121404095D01*
X134596095Y-121546952D01*
X134024666Y-122118380D01*
X134643714Y-122118380D01*
X140549333Y-138628380D02*
X140216000Y-138152190D01*
X139977904Y-138628380D02*
X139977904Y-137628380D01*
X140358857Y-137628380D01*
X140454095Y-137676000D01*
X140501714Y-137723619D01*
X140549333Y-137818857D01*
X140549333Y-137961714D01*
X140501714Y-138056952D01*
X140454095Y-138104571D01*
X140358857Y-138152190D01*
X139977904Y-138152190D01*
X140882666Y-137628380D02*
X141549333Y-137628380D01*
X141120761Y-138628380D01*
X140739833Y-135580380D02*
X140406500Y-135104190D01*
X140168404Y-135580380D02*
X140168404Y-134580380D01*
X140549357Y-134580380D01*
X140644595Y-134628000D01*
X140692214Y-134675619D01*
X140739833Y-134770857D01*
X140739833Y-134913714D01*
X140692214Y-135008952D01*
X140644595Y-135056571D01*
X140549357Y-135104190D01*
X140168404Y-135104190D01*
X141311261Y-135008952D02*
X141216023Y-134961333D01*
X141168404Y-134913714D01*
X141120785Y-134818476D01*
X141120785Y-134770857D01*
X141168404Y-134675619D01*
X141216023Y-134628000D01*
X141311261Y-134580380D01*
X141501738Y-134580380D01*
X141596976Y-134628000D01*
X141644595Y-134675619D01*
X141692214Y-134770857D01*
X141692214Y-134818476D01*
X141644595Y-134913714D01*
X141596976Y-134961333D01*
X141501738Y-135008952D01*
X141311261Y-135008952D01*
X141216023Y-135056571D01*
X141168404Y-135104190D01*
X141120785Y-135199428D01*
X141120785Y-135389904D01*
X141168404Y-135485142D01*
X141216023Y-135532761D01*
X141311261Y-135580380D01*
X141501738Y-135580380D01*
X141596976Y-135532761D01*
X141644595Y-135485142D01*
X141692214Y-135389904D01*
X141692214Y-135199428D01*
X141644595Y-135104190D01*
X141596976Y-135056571D01*
X141501738Y-135008952D01*
X136398095Y-132548380D02*
X136398095Y-133357904D01*
X136445714Y-133453142D01*
X136493333Y-133500761D01*
X136588571Y-133548380D01*
X136779047Y-133548380D01*
X136874285Y-133500761D01*
X136921904Y-133453142D01*
X136969523Y-133357904D01*
X136969523Y-132548380D01*
X137350476Y-132548380D02*
X137969523Y-132548380D01*
X137636190Y-132929333D01*
X137779047Y-132929333D01*
X137874285Y-132976952D01*
X137921904Y-133024571D01*
X137969523Y-133119809D01*
X137969523Y-133357904D01*
X137921904Y-133453142D01*
X137874285Y-133500761D01*
X137779047Y-133548380D01*
X137493333Y-133548380D01*
X137398095Y-133500761D01*
X137350476Y-133453142D01*
X133842166Y-158011880D02*
X133842166Y-158726166D01*
X133794547Y-158869023D01*
X133699309Y-158964261D01*
X133556452Y-159011880D01*
X133461214Y-159011880D01*
X134746928Y-158011880D02*
X134556452Y-158011880D01*
X134461214Y-158059500D01*
X134413595Y-158107119D01*
X134318357Y-158249976D01*
X134270738Y-158440452D01*
X134270738Y-158821404D01*
X134318357Y-158916642D01*
X134365976Y-158964261D01*
X134461214Y-159011880D01*
X134651690Y-159011880D01*
X134746928Y-158964261D01*
X134794547Y-158916642D01*
X134842166Y-158821404D01*
X134842166Y-158583309D01*
X134794547Y-158488071D01*
X134746928Y-158440452D01*
X134651690Y-158392833D01*
X134461214Y-158392833D01*
X134365976Y-158440452D01*
X134318357Y-158488071D01*
X134270738Y-158583309D01*
X136993333Y-122023142D02*
X136945714Y-122070761D01*
X136802857Y-122118380D01*
X136707619Y-122118380D01*
X136564761Y-122070761D01*
X136469523Y-121975523D01*
X136421904Y-121880285D01*
X136374285Y-121689809D01*
X136374285Y-121546952D01*
X136421904Y-121356476D01*
X136469523Y-121261238D01*
X136564761Y-121166000D01*
X136707619Y-121118380D01*
X136802857Y-121118380D01*
X136945714Y-121166000D01*
X136993333Y-121213619D01*
X137945714Y-122118380D02*
X137374285Y-122118380D01*
X137660000Y-122118380D02*
X137660000Y-121118380D01*
X137564761Y-121261238D01*
X137469523Y-121356476D01*
X137374285Y-121404095D01*
X132754642Y-129770166D02*
X132802261Y-129817785D01*
X132849880Y-129960642D01*
X132849880Y-130055880D01*
X132802261Y-130198738D01*
X132707023Y-130293976D01*
X132611785Y-130341595D01*
X132421309Y-130389214D01*
X132278452Y-130389214D01*
X132087976Y-130341595D01*
X131992738Y-130293976D01*
X131897500Y-130198738D01*
X131849880Y-130055880D01*
X131849880Y-129960642D01*
X131897500Y-129817785D01*
X131945119Y-129770166D01*
X131849880Y-129436833D02*
X131849880Y-128817785D01*
X132230833Y-129151119D01*
X132230833Y-129008261D01*
X132278452Y-128913023D01*
X132326071Y-128865404D01*
X132421309Y-128817785D01*
X132659404Y-128817785D01*
X132754642Y-128865404D01*
X132802261Y-128913023D01*
X132849880Y-129008261D01*
X132849880Y-129293976D01*
X132802261Y-129389214D01*
X132754642Y-129436833D01*
X126769833Y-135993142D02*
X126722214Y-136040761D01*
X126579357Y-136088380D01*
X126484119Y-136088380D01*
X126341261Y-136040761D01*
X126246023Y-135945523D01*
X126198404Y-135850285D01*
X126150785Y-135659809D01*
X126150785Y-135516952D01*
X126198404Y-135326476D01*
X126246023Y-135231238D01*
X126341261Y-135136000D01*
X126484119Y-135088380D01*
X126579357Y-135088380D01*
X126722214Y-135136000D01*
X126769833Y-135183619D01*
X127626976Y-135421714D02*
X127626976Y-136088380D01*
X127388880Y-135040761D02*
X127150785Y-135755047D01*
X127769833Y-135755047D01*
X126769833Y-137961642D02*
X126722214Y-138009261D01*
X126579357Y-138056880D01*
X126484119Y-138056880D01*
X126341261Y-138009261D01*
X126246023Y-137914023D01*
X126198404Y-137818785D01*
X126150785Y-137628309D01*
X126150785Y-137485452D01*
X126198404Y-137294976D01*
X126246023Y-137199738D01*
X126341261Y-137104500D01*
X126484119Y-137056880D01*
X126579357Y-137056880D01*
X126722214Y-137104500D01*
X126769833Y-137152119D01*
X127674595Y-137056880D02*
X127198404Y-137056880D01*
X127150785Y-137533071D01*
X127198404Y-137485452D01*
X127293642Y-137437833D01*
X127531738Y-137437833D01*
X127626976Y-137485452D01*
X127674595Y-137533071D01*
X127722214Y-137628309D01*
X127722214Y-137866404D01*
X127674595Y-137961642D01*
X127626976Y-138009261D01*
X127531738Y-138056880D01*
X127293642Y-138056880D01*
X127198404Y-138009261D01*
X127150785Y-137961642D01*
X128103333Y-124150380D02*
X127627142Y-124150380D01*
X127627142Y-123150380D01*
X128960476Y-124150380D02*
X128389047Y-124150380D01*
X128674761Y-124150380D02*
X128674761Y-123150380D01*
X128579523Y-123293238D01*
X128484285Y-123388476D01*
X128389047Y-123436095D01*
X146621595Y-144232380D02*
X146621595Y-145041904D01*
X146669214Y-145137142D01*
X146716833Y-145184761D01*
X146812071Y-145232380D01*
X147002547Y-145232380D01*
X147097785Y-145184761D01*
X147145404Y-145137142D01*
X147193023Y-145041904D01*
X147193023Y-144232380D01*
X147621595Y-144327619D02*
X147669214Y-144280000D01*
X147764452Y-144232380D01*
X148002547Y-144232380D01*
X148097785Y-144280000D01*
X148145404Y-144327619D01*
X148193023Y-144422857D01*
X148193023Y-144518095D01*
X148145404Y-144660952D01*
X147573976Y-145232380D01*
X148193023Y-145232380D01*
M02*
