M48
;DRILL file {KiCad (2017-09-19 revision dddaa7e69)-makepkg} date 10/26/17 12:28:37
;FORMAT={-:-/ absolute / metric / decimal}
FMAT,2
METRIC,TZ
T1C0.400
T2C1.000
T3C1.050
T4C1.500
%
G90
G05
M71
T1
X114.808Y-149.352
X114.808Y-151.892
X114.808Y-154.94
X116.332Y-157.988
X117.856Y-117.856
X117.856Y-120.904
X117.856Y-123.952
X117.856Y-127.
X117.856Y-130.048
X117.856Y-133.096
X117.856Y-136.144
X117.856Y-139.192
X117.856Y-142.24
X118.872Y-145.288
X120.396Y-157.988
X120.904Y-141.224
X121.412Y-145.796
X124.46Y-113.792
X124.46Y-117.348
X124.46Y-120.904
X124.46Y-125.222
X124.46Y-145.796
X124.46Y-157.988
X127.508Y-111.76
X127.508Y-145.796
X129.032Y-113.792
X129.032Y-117.348
X129.032Y-120.904
X129.032Y-125.222
X129.032Y-157.988
X130.048Y-146.812
X130.048Y-148.844
X130.048Y-150.876
X130.048Y-154.432
X131.572Y-125.222
X132.715Y-121.92
X132.842Y-133.35
X132.842Y-134.366
X132.842Y-136.398
X133.096Y-111.76
X133.985Y-121.92
X134.112Y-157.988
X134.62Y-117.348
X135.128Y-125.476
X135.255Y-121.92
X135.255Y-131.953
X135.89Y-132.588
X136.525Y-121.92
X136.652Y-132.588
X136.652Y-135.128
X136.652Y-138.176
X136.652Y-140.716
X137.16Y-114.808
X137.16Y-144.78
X137.16Y-147.828
X137.16Y-150.876
X137.16Y-154.432
X137.16Y-157.988
X137.414Y-132.588
X137.795Y-121.92
X138.303Y-127.381
X139.065Y-121.92
X139.192Y-140.716
X139.446Y-131.953
X140.208Y-117.856
X140.208Y-137.16
X140.208Y-138.557
X140.335Y-133.604
X141.224Y-144.272
X141.605Y-123.19
X141.605Y-125.095
X141.605Y-127.
X141.605Y-128.905
X141.605Y-130.81
X141.732Y-135.128
X142.24Y-143.256
X142.24Y-148.336
X142.875Y-121.92
X143.256Y-133.604
X143.256Y-135.636
X143.256Y-137.16
X143.256Y-149.987
X143.256Y-152.4
X143.256Y-154.94
X143.256Y-157.988
X144.145Y-120.65
X145.796Y-119.38
X145.796Y-121.412
X145.796Y-157.988
X146.685Y-141.351
X146.685Y-142.367
X146.939Y-141.859
X147.32Y-119.38
X147.32Y-121.412
X147.447Y-141.859
X147.701Y-141.351
X147.701Y-142.367
X148.336Y-120.396
X148.336Y-157.988
X148.971Y-127.889
X148.971Y-128.524
X148.971Y-129.159
X148.971Y-129.794
X148.971Y-130.302
X149.352Y-119.38
X149.762Y-141.634
X149.845Y-127.889
X149.86Y-128.524
X149.86Y-129.159
X149.86Y-129.794
X149.86Y-130.302
X150.368Y-120.396
X150.368Y-136.144
X150.836Y-127.362
X151.384Y-157.988
X152.908Y-151.384
X154.417Y-128.734
X154.432Y-136.144
X154.432Y-157.988
X155.956Y-142.24
X155.956Y-146.812
X155.956Y-150.368
X157.48Y-157.988
X159.004Y-143.256
X159.004Y-146.304
X159.004Y-148.336
X159.004Y-151.384
X159.004Y-153.924
X159.004Y-156.464
T2
X119.888Y-111.5
X119.888Y-114.04
X119.888Y-116.58
X119.888Y-119.12
X119.888Y-121.66
X119.888Y-124.2
X119.888Y-126.74
X119.888Y-129.28
X119.888Y-131.82
X119.888Y-134.36
X119.888Y-136.9
X119.888Y-139.44
X122.428Y-111.5
X122.428Y-114.04
X122.428Y-116.58
X122.428Y-119.12
X122.428Y-121.66
X122.428Y-124.2
X122.428Y-126.74
X122.428Y-129.28
X122.428Y-131.82
X122.428Y-134.36
X122.428Y-136.9
X122.428Y-139.44
X157.5Y-111.55
X157.5Y-114.09
X157.5Y-116.63
X157.5Y-119.17
X157.5Y-121.71
X157.5Y-124.25
X157.5Y-126.79
X157.5Y-129.33
X157.5Y-131.87
X157.5Y-134.41
X157.5Y-136.95
X157.5Y-139.49
X146.09Y-154.432
X148.59Y-154.432
X151.09Y-154.432
X117.508Y-154.94
X120.008Y-154.94
X122.508Y-154.94
X125.008Y-154.94
X127.508Y-154.94
T3
X134.62Y-152.908
X134.62Y-155.408
T4
X140.335Y-151.257
X140.335Y-156.591
T0
M30
