G04 #@! TF.GenerationSoftware,KiCad,Pcbnew,(2017-09-19 revision dddaa7e69)-makepkg*
G04 #@! TF.CreationDate,2017-10-26T12:28:29+02:00*
G04 #@! TF.ProjectId,ezs-camera.kicad_pcb_v1.1,657A732D63616D6572612E6B69636164,rev?*
G04 #@! TF.SameCoordinates,Original*
G04 #@! TF.FileFunction,Soldermask,Top*
G04 #@! TF.FilePolarity,Negative*
%FSLAX46Y46*%
G04 Gerber Fmt 4.6, Leading zero omitted, Abs format (unit mm)*
G04 Created by KiCad (PCBNEW (2017-09-19 revision dddaa7e69)-makepkg) date 10/26/17 12:28:29*
%MOMM*%
%LPD*%
G01*
G04 APERTURE LIST*
%ADD10C,0.500000*%
%ADD11R,0.791200X0.384800*%
%ADD12R,1.680200X3.178800*%
%ADD13R,2.100000X2.100000*%
%ADD14O,2.100000X2.100000*%
%ADD15R,1.900000X1.650000*%
%ADD16R,1.900000X1.700000*%
%ADD17R,1.650000X1.900000*%
%ADD18R,2.150000X2.150000*%
%ADD19C,2.150000*%
%ADD20R,1.700000X1.900000*%
%ADD21R,3.100000X1.800000*%
%ADD22R,1.000000X1.900000*%
%ADD23R,1.400000X1.400000*%
%ADD24R,1.600000X1.300000*%
%ADD25R,2.400000X2.100000*%
%ADD26R,1.050000X1.460000*%
%ADD27R,7.900000X3.400000*%
%ADD28R,1.780000X1.780000*%
%ADD29R,0.930000X0.360000*%
%ADD30R,0.360000X0.930000*%
G04 APERTURE END LIST*
D10*
X140589000Y-151320500D02*
G75*
G03X140589000Y-151320500I-254000J0D01*
G01*
X140970000Y-151320500D02*
G75*
G03X140970000Y-151320500I-254000J0D01*
G01*
X140970000Y-151320500D02*
G75*
G03X140970000Y-151320500I-635000J0D01*
G01*
X140589000Y-151320500D02*
G75*
G03X140589000Y-151320500I-254000J0D01*
G01*
X141351000Y-151320500D02*
G75*
G03X141351000Y-151320500I-1016000J0D01*
G01*
X142049500Y-151320500D02*
G75*
G03X142049500Y-151320500I-1778000J0D01*
G01*
X142312410Y-151257000D02*
G75*
G03X142312410Y-151257000I-2040910J0D01*
G01*
X141840365Y-151320500D02*
G75*
G03X141840365Y-151320500I-1505365J0D01*
G01*
X142312410Y-156527500D02*
G75*
G03X142312410Y-156527500I-2040910J0D01*
G01*
X142049500Y-156591000D02*
G75*
G03X142049500Y-156591000I-1778000J0D01*
G01*
X141840365Y-156591000D02*
G75*
G03X141840365Y-156591000I-1505365J0D01*
G01*
X140589000Y-156591000D02*
G75*
G03X140589000Y-156591000I-254000J0D01*
G01*
X140970000Y-156591000D02*
G75*
G03X140970000Y-156591000I-254000J0D01*
G01*
X140589000Y-156591000D02*
G75*
G03X140589000Y-156591000I-254000J0D01*
G01*
X141351000Y-156591000D02*
G75*
G03X141351000Y-156591000I-1016000J0D01*
G01*
X140970000Y-156591000D02*
G75*
G03X140970000Y-156591000I-635000J0D01*
G01*
D11*
X150876000Y-130082801D03*
X150876000Y-129582799D03*
X150876000Y-129082800D03*
X150876000Y-128582801D03*
X150876000Y-128082799D03*
X147878800Y-128082799D03*
X147878800Y-128582801D03*
X147878800Y-129082800D03*
X147878800Y-129582799D03*
X147878800Y-130082801D03*
D12*
X149377400Y-129082800D03*
D13*
X122428000Y-111500000D03*
D14*
X119888000Y-111500000D03*
X122428000Y-114040000D03*
X119888000Y-114040000D03*
X122428000Y-116580000D03*
X119888000Y-116580000D03*
X122428000Y-119120000D03*
X119888000Y-119120000D03*
X122428000Y-121660000D03*
X119888000Y-121660000D03*
X122428000Y-124200000D03*
X119888000Y-124200000D03*
X122428000Y-126740000D03*
X119888000Y-126740000D03*
X122428000Y-129280000D03*
X119888000Y-129280000D03*
X122428000Y-131820000D03*
X119888000Y-131820000D03*
X122428000Y-134360000D03*
X119888000Y-134360000D03*
X122428000Y-136900000D03*
X119888000Y-136900000D03*
X122428000Y-139440000D03*
X119888000Y-139440000D03*
D15*
X147070978Y-132162630D03*
X149570978Y-132162630D03*
D16*
X144352000Y-146050000D03*
X141652000Y-146050000D03*
D17*
X143898869Y-140972659D03*
X143898869Y-143472659D03*
D15*
X147781911Y-136551641D03*
X145281911Y-136551641D03*
X149181500Y-146050000D03*
X151681500Y-146050000D03*
D16*
X151438869Y-144254659D03*
X154138869Y-144254659D03*
D18*
X146090000Y-154432000D03*
D19*
X148590000Y-154432000D03*
X151090000Y-154432000D03*
D16*
X144700000Y-150368000D03*
X147400000Y-150368000D03*
X151438869Y-142222659D03*
X154138869Y-142222659D03*
X151438869Y-140444659D03*
X154138869Y-140444659D03*
X145595911Y-138583641D03*
X142895911Y-138583641D03*
X144700000Y-148336000D03*
X147400000Y-148336000D03*
X151438869Y-138412659D03*
X154138869Y-138412659D03*
D18*
X127508000Y-154940000D03*
D19*
X125008000Y-154940000D03*
X122508000Y-154940000D03*
X120008000Y-154940000D03*
X117508000Y-154940000D03*
D15*
X152110978Y-122002630D03*
X149610978Y-122002630D03*
D20*
X142986978Y-125892630D03*
X142986978Y-123192630D03*
D15*
X152110978Y-124034630D03*
X149610978Y-124034630D03*
D17*
X147304978Y-125792630D03*
X147304978Y-123292630D03*
D15*
X152110978Y-126066630D03*
X149610978Y-126066630D03*
D20*
X142732978Y-128780630D03*
X142732978Y-131480630D03*
D21*
X153451778Y-132776830D03*
X153451778Y-130176830D03*
D16*
X147638978Y-134194630D03*
X144938978Y-134194630D03*
D20*
X144891978Y-131480630D03*
X144891978Y-128780630D03*
X145145978Y-123192630D03*
X145145978Y-125892630D03*
X154416978Y-124206000D03*
X154416978Y-126906000D03*
D22*
X128748222Y-143421276D03*
X127478222Y-143421276D03*
X126208222Y-143421276D03*
X124938222Y-143421276D03*
X123668222Y-143421276D03*
X122398222Y-143421276D03*
X121128222Y-143421276D03*
X119858222Y-143421276D03*
X119858222Y-148821276D03*
X121128222Y-148821276D03*
X122398222Y-148821276D03*
X123668222Y-148821276D03*
X124938222Y-148821276D03*
X126208222Y-148821276D03*
X127478222Y-148821276D03*
X128748222Y-148821276D03*
D13*
X157500000Y-111550000D03*
D14*
X157500000Y-114090000D03*
X157500000Y-116630000D03*
X157500000Y-119170000D03*
X157500000Y-121710000D03*
X157500000Y-124250000D03*
X157500000Y-126790000D03*
X157500000Y-129330000D03*
X157500000Y-131870000D03*
X157500000Y-134410000D03*
X157500000Y-136950000D03*
X157500000Y-139490000D03*
D23*
X140356138Y-130950348D03*
X140356138Y-128450348D03*
D24*
X133858000Y-126872000D03*
X133858000Y-123572000D03*
D25*
X134477531Y-138018848D03*
X138477531Y-138018848D03*
X134482638Y-135097848D03*
X138482638Y-135097848D03*
D26*
X136353031Y-130837989D03*
X137303031Y-130837989D03*
X138253031Y-130837989D03*
X138253031Y-128637989D03*
X136353031Y-128637989D03*
X137303031Y-128637989D03*
D18*
X134620000Y-152908000D03*
D19*
X134620000Y-155408000D03*
D17*
X136985531Y-126060848D03*
X136985531Y-123560848D03*
X133874031Y-130987989D03*
X133874031Y-128487989D03*
D15*
X129068031Y-135636000D03*
X131568031Y-135636000D03*
X129179000Y-137668000D03*
X131679000Y-137668000D03*
D27*
X128354638Y-132581348D03*
X128354638Y-127581348D03*
D28*
X147167600Y-141884400D03*
D29*
X145692599Y-142634589D03*
X145692599Y-142134463D03*
X145692599Y-141634337D03*
X145692599Y-141134211D03*
D30*
X146417599Y-140409399D03*
X146917600Y-140409399D03*
X147417600Y-140409399D03*
X147917601Y-140409399D03*
D29*
X148642601Y-141134211D03*
X148642601Y-141634337D03*
X148642601Y-142134463D03*
X148642601Y-142634589D03*
D30*
X147917601Y-143359401D03*
X147417600Y-143359401D03*
X146917600Y-143359401D03*
X146417599Y-143359401D03*
M02*
